<svg xmlns="http://www.w3.org/2000/svg" viewBox="0 0 250.58 151.3"><defs><style>.d{fill:#20114f;}</style></defs><g id="a"/><g id="b"><g id="c"><polygon class="d" points="35.89 126.26 43.63 126.26 43.63 150.9 47.7 150.9 47.7 126.26 53.9 126.26 55.87 122.4 35.89 122.4 35.89 126.26"/><path class="d" d="M69.98,122.4l-11.81,28.5h4.24l2.97-7.33h12.01l3.01,7.33h4.23l-11.81-28.5h-2.85Zm-2.97,17.3l4.4-10.59,4.4,10.59h-8.79Z"/><polygon class="d" points="96.26 122.4 92.19 122.4 92.19 150.9 108.88 150.9 108.88 147.03 96.26 147.03 96.26 122.4"/><polygon class="d" points="121.5 137.46 129.43 137.46 130.87 133.59 121.5 133.59 121.5 126.26 131.75 126.26 133.72 122.4 117.43 122.4 117.43 150.9 134.12 150.9 134.12 147.03 121.5 147.03 121.5 137.46"/><polygon class="d" points="162.62 143.32 145.52 122.4 142.67 122.4 142.67 150.9 146.74 150.9 146.74 129.97 163.84 150.9 166.69 150.9 166.69 122.4 162.62 122.4 162.62 143.32"/><polygon class="d" points="174.9 126.26 182.63 126.26 182.63 150.9 186.7 150.9 186.7 126.26 192.9 126.26 194.87 122.4 174.9 122.4 174.9 126.26"/><path class="d" d="M214.75,136.52c-3.66-2.44-9.73-3.22-9.73-6.84,0-2.48,2.36-3.83,4.72-3.83,1.79,0,3.54,.65,5.09,1.95l2.4-2.97c-1.51-1.26-4.03-2.85-7.65-2.85-4.97,0-8.63,3.42-8.63,7.57,0,2.97,1.59,4.93,3.62,6.27,3.79,2.48,9.81,2.97,9.81,7.33,0,2.56-2.32,4.28-4.97,4.28-2.93,0-5.29-1.63-6.96-3.66l-2.81,2.77c2.52,3.05,6.07,4.76,9.97,4.76,4.97,0,8.84-3.26,8.84-8.26,0-3.26-1.79-5.25-3.71-6.52Z"/><path class="d" d="M56.29,100.66c4.82-2.04,9.16-4.96,12.88-8.68,3.72-3.72,6.64-8.05,8.68-12.88,2.11-5,3.19-10.31,3.19-15.77s-1.07-10.77-3.19-15.77c-2.04-4.82-4.96-9.16-8.68-12.88-3.72-3.72-8.05-6.64-12.88-8.68-.26-.11-.52-.22-.79-.32L75.91,0H10.22l8.45,15.85h24.4l-18.13,22.82h16.22c3.11,.08,6.13,.73,8.96,1.93,2.94,1.24,5.58,3.02,7.84,5.29,2.27,2.27,4.05,4.91,5.29,7.84,1.28,3.04,1.94,6.27,1.94,9.6s-.65,6.56-1.93,9.6c-1.24,2.94-3.02,5.58-5.29,7.84-2.27,2.27-4.91,4.05-7.84,5.29-3.04,1.28-6.26,1.94-9.6,1.94s-6.56-.65-9.6-1.94c-2.94-1.24-5.57-3.02-7.84-5.29-2.27-2.27-4.05-4.91-5.29-7.84-1.28-3.04-1.93-6.26-1.93-9.6s.63-6.45,1.87-9.44l-14.54-6.33h0c-2.12,5-3.19,10.31-3.19,15.77s1.07,10.77,3.19,15.77c2.04,4.82,4.96,9.16,8.68,12.88,3.72,3.72,8.05,6.64,12.88,8.68,5,2.12,10.31,3.19,15.77,3.19s10.77-1.07,15.77-3.19Z"/><path class="d" d="M126.19,103.73c22.35,0,40.48-18.12,40.48-40.48s-17.77-40.11-39.83-40.46L144.96,0h-20.21l-30.18,37.96h.02c-5.55,6.94-8.88,15.73-8.88,25.29,0,22.35,18.12,40.48,40.48,40.48Zm0-65.13c13.62,0,24.66,11.04,24.66,24.66s-11.04,24.66-24.66,24.66-24.66-11.04-24.66-24.66,11.04-24.66,24.66-24.66Z"/><path class="d" d="M210.07,22.82c-5.31,0-10.37,1.03-15.02,2.88V15.85h33.25L236.71,0h-57.51V50.09h10.06c1.55-2.43,3.52-4.56,5.79-6.31,4.16-3.2,9.36-5.12,15.02-5.12,13.62,0,24.67,11.04,24.67,24.67s-11.04,24.67-24.67,24.67c-12.04,0-22.05-8.62-24.23-20.03l-14.78,6.3c4.77,17.06,20.42,29.57,39.01,29.57,22.38,0,40.51-18.14,40.51-40.51s-18.14-40.51-40.51-40.51Z"/></g></g></svg>